HIERARCHY
ROOT Hips
{
	OFFSET -0.179506 -22.333345 2.821913
	CHANNELS 6 Xposition Yposition Zposition Zrotation Yrotation Xrotation 
	JOINT LeftUpLeg
	{
		OFFSET 6.951974 -9.140623 -0.681533
		CHANNELS 3 Zrotation Yrotation Xrotation
		JOINT LeftLeg
		{
			OFFSET 3.427654 -37.519855 -0.449580
			CHANNELS 3 Zrotation Yrotation Xrotation
			JOINT LeftFoot
			{
				OFFSET -1.359570 -39.796059 -4.369333
				CHANNELS 3 Zrotation Yrotation Xrotation
				JOINT LeftToe
				{
					OFFSET 2.635814 -5.579078 11.928840
					CHANNELS 3 Zrotation Yrotation Xrotation
					End Site
					{
						OFFSET 0.000000 0.000000 0.000000
					}
				}
			}
		}
	}
	JOINT RightUpLeg
	{
		OFFSET -6.767048 -9.052170 -0.431982
		CHANNELS 3 Zrotation Yrotation Xrotation
		JOINT RightLeg
		{
			OFFSET -3.829005 -38.256897 -0.885003
			CHANNELS 3 Zrotation Yrotation Xrotation
			JOINT RightFoot
			{
				OFFSET 1.577377 -39.841461 -4.231180
				CHANNELS 3 Zrotation Yrotation Xrotation
				JOINT RightToe
				{
					OFFSET -2.537174 -4.814398 12.334795
					CHANNELS 3 Zrotation Yrotation Xrotation
					End Site
					{
						OFFSET 0.000000 0.000000 0.000000
					}
				}
			}
		}
	}
	JOINT Spine
	{
		OFFSET -0.253288 10.896323 -2.669631
		CHANNELS 3 Zrotation Yrotation Xrotation
		JOINT Spine1
		{
			OFFSET 0.548704 13.518043 0.109247
			CHANNELS 3 Zrotation Yrotation Xrotation
			JOINT Spine2
			{
				OFFSET 0.145701 5.292222 2.542457
				CHANNELS 3 Zrotation Yrotation Xrotation
				JOINT Neck
				{
					OFFSET -0.277840 21.387037 -4.285703
					CHANNELS 3 Zrotation Yrotation Xrotation
					JOINT Head
					{
						OFFSET 0.515184 6.496960 5.134897
						CHANNELS 3 Zrotation Yrotation Xrotation
						End Site
						{
							OFFSET 0.000000 0.000000 0.000000
						}
					}
				}
				JOINT LeftShoulder
				{
					OFFSET 7.884473 12.174932 -3.408961
					CHANNELS 3 Zrotation Yrotation Xrotation
					JOINT LeftArm
					{
						OFFSET 9.097692 3.046888 -0.886815
						CHANNELS 3 Zrotation Yrotation Xrotation
						JOINT LeftForeArm
						{
							OFFSET 25.961220 -1.277207 -2.745643
							CHANNELS 3 Zrotation Yrotation Xrotation
							JOINT LeftHand
							{
								OFFSET 24.923361 0.898606 -0.117091
								CHANNELS 3 Zrotation Yrotation Xrotation
								End Site
								{
									OFFSET 0.000000 0.000000 0.000000
								}
							}
						}
					}
				}
				JOINT RightShoulder
				{
					OFFSET -8.175920 11.883285 -3.861528
					CHANNELS 3 Zrotation Yrotation Xrotation
					JOINT RightArm
					{
						OFFSET -9.601238 3.255117 -0.914307
						CHANNELS 3 Zrotation Yrotation Xrotation
						JOINT RightForeArm
						{
							OFFSET -25.374195 -1.332924 -2.140099
							CHANNELS 3 Zrotation Yrotation Xrotation
							JOINT RightHand
							{
								OFFSET -25.529810 0.777228 -0.555919
								CHANNELS 3 Zrotation Yrotation Xrotation
								End Site
								{
									OFFSET 0.000000 0.000000 0.000000
								}
							}
						}
					}
				}
			}
		}
	}
}
MOTION
Frames: 15
Frame Time: 0.033333
10.465326 -66.437332 91.712090 178.252792 -0.185423 82.597808 2.234120 -0.103357 -12.600464 -4.863994 10.366710 16.692496 1.360951 13.175435 -11.822938 nan nan nan 0.557365 -5.785125 13.638310 3.201287 4.403080 3.245922 -0.543367 -5.493747 -13.880739 nan nan nan 2.965267 4.688900 10.214289 0.023605 -1.770552 0.018180 -0.427543 0.284377 2.325986 3.206015 3.696106 -0.342360 -1.917731 1.925732 13.174087 -28.344323 3.827518 3.703139 -57.726078 1.847836 10.161000 3.771291 -24.890975 15.658290 -6.688487 -7.996693 -2.869751 22.276178 3.004802 0.383924 58.993337 7.084012 16.807731 -7.642766 34.715573 4.697514 4.125316 2.866958 -6.472407 
10.486789 -65.387680 91.514465 177.709968 -0.089731 82.820194 2.241032 0.330945 -13.085838 -4.541619 10.676862 13.225465 0.918082 12.843245 -9.620019 nan nan nan 0.516548 -5.871356 14.513647 3.156792 4.793211 2.494466 -0.749975 -5.494607 -14.379166 nan nan nan 3.185090 4.887042 10.087252 -0.107908 -1.690526 0.174334 -0.455538 0.463578 2.081550 3.196552 3.853680 -0.340561 -2.019047 1.899194 13.058052 -28.363053 4.144429 3.698551 -57.726604 2.387524 10.101573 3.750898 -24.626631 15.813134 -6.967090 -7.790067 -2.452796 22.108641 3.250839 0.323147 58.715973 7.754526 16.813815 -7.583845 35.467932 4.815690 4.432197 3.150020 -5.873859 
10.509367 -64.348236 91.277229 177.273201 0.067409 83.107193 2.281374 0.796591 -13.664778 -4.190853 11.183521 9.829625 0.462201 12.495429 -6.859684 nan nan nan 0.557252 -5.879705 15.269137 3.169040 5.081214 1.797105 -0.884508 -5.474340 -14.884646 nan nan nan 3.368424 5.051628 9.843542 -0.156430 -1.656206 0.353916 -0.503223 0.715814 1.902396 3.220625 3.966086 -0.347348 -2.018282 1.809351 12.839597 -28.350588 4.424994 3.692507 -57.780134 2.789535 10.106039 3.840227 -24.266967 15.893732 -7.282270 -7.697502 -2.116361 21.819403 3.424102 0.145568 58.618469 8.388834 16.859131 -7.583102 36.132779 4.729501 4.561760 3.470665 -5.790495 
10.538460 -63.299168 91.022537 176.948631 0.286893 83.295206 2.348899 1.462519 -14.104433 -3.990782 11.609317 6.496610 -0.178362 12.138495 -3.997278 nan nan nan 0.604791 -5.962332 16.004955 3.255360 5.268074 1.412074 -1.038543 -5.374024 -15.449929 nan nan nan 3.578050 5.159182 9.731706 -0.192856 -1.596489 0.555267 -0.507005 0.862862 1.673327 3.220302 4.068825 -0.423318 -2.075829 1.746797 12.664624 -28.297156 4.623786 3.726622 -57.912224 3.172551 10.104440 3.887015 -23.821828 15.948987 -7.365823 -7.697993 -2.053335 21.510892 3.603604 0.009227 58.576807 9.040703 16.903419 -7.618194 36.784487 4.499611 4.420740 3.809250 -5.909514 
10.552888 -62.209408 90.751724 176.618990 0.548153 83.416751 2.407204 2.318386 -14.442147 -3.859258 11.827585 3.345733 -0.765445 11.751535 -1.264494 nan nan nan 0.649653 -6.158528 16.773253 3.282713 5.452270 1.170072 -1.177509 -5.123995 -16.059028 nan nan nan 3.842132 5.194820 9.697582 -0.220137 -1.512158 0.744769 -0.511393 1.002718 1.368438 3.190295 4.278169 -0.368567 -2.158976 1.788257 12.543098 -28.339523 4.814115 3.746625 -57.932408 3.692504 10.083509 3.777938 -23.433269 16.100950 -7.259445 -7.612417 -1.689830 21.339004 3.835757 -0.006181 58.352248 9.690519 16.817006 -7.589219 37.411502 4.257190 4.199545 4.116485 -5.809348 
10.555994 -61.096252 90.446709 176.325024 0.750812 83.580313 2.379162 3.068442 -14.769714 -3.758545 11.986086 0.254182 -1.213165 11.352239 1.281206 nan nan nan 0.631334 -6.381648 17.459639 3.245922 5.703261 1.025481 -1.302038 -4.867082 -16.704470 nan nan nan 4.014125 5.272330 9.533267 -0.216602 -1.434135 0.920606 -0.519416 1.125544 1.181345 3.124950 4.479840 -0.263608 -2.205871 1.749186 12.298311 -28.445507 5.002296 3.775575 -57.923382 4.156407 10.036764 3.795104 -23.130938 16.036348 -7.170687 -7.482721 -1.404418 21.271650 4.065278 0.015504 58.031420 10.328950 16.714582 -7.658035 38.043839 4.025590 4.112195 4.326871 -5.617170 
10.543989 -59.966763 90.114677 176.022346 0.893359 83.714140 2.294025 3.819738 -15.052087 -3.810876 12.151765 -2.644455 -1.664023 11.025298 3.462912 nan nan nan 0.491776 -6.608222 18.076721 3.238263 5.978358 1.112537 -1.465134 -4.586548 -17.456945 nan nan nan 4.153399 5.400352 9.405813 -0.224227 -1.326779 1.034211 -0.538330 1.230016 1.076755 3.088174 4.616396 -0.271805 -2.307256 1.615793 12.101983 -28.491967 5.147699 3.784131 -57.984023 4.573626 9.998337 3.881269 -22.721654 15.954875 -7.139815 -7.372459 -1.280662 21.213110 4.192012 -0.119653 57.811071 10.926816 16.691244 -7.851381 38.643064 3.743586 3.982093 4.375848 -5.587387 
10.512501 -58.812965 89.760765 175.599576 1.037725 83.816611 2.320451 4.676062 -15.237442 -4.138406 12.238539 -5.271079 -2.328339 10.715149 5.231715 nan nan nan 0.252787 -6.795990 18.620026 3.319955 6.212598 1.450624 -1.608975 -4.203915 -18.214151 nan nan nan 4.305754 5.506930 9.234908 -0.227120 -1.154121 1.212215 -0.569669 1.415747 1.019420 3.114731 4.867788 -0.410003 -2.385710 1.516155 12.064308 -28.540216 5.265832 3.723180 -58.055066 4.949017 9.957973 3.942603 -22.161411 15.965043 -7.072741 -7.433661 -1.221207 21.141661 4.354761 -0.255210 57.574386 11.447544 16.690118 -8.037160 39.290551 3.275548 3.609334 4.484277 -5.924106 
10.474604 -57.639198 89.407249 175.144958 1.244432 83.857995 2.438373 5.540734 -15.315000 -4.576341 12.315059 -7.547988 -2.951239 10.504712 6.538202 nan nan nan 0.115380 -6.885979 19.228602 3.372024 6.537686 1.790881 -1.729983 -3.981377 -18.922201 nan nan nan 4.496003 5.571987 9.077870 -0.176740 -0.966357 1.433332 -0.604445 1.648706 0.941618 3.159799 5.047802 -0.557428 -2.502310 1.417865 12.124324 -28.632439 5.385970 3.680206 -58.087804 5.295151 9.898572 3.949852 -21.617393 15.998510 -6.986084 -7.527268 -1.239104 20.940386 4.563439 -0.379959 57.410271 11.896510 16.626401 -8.045342 39.861653 2.753847 3.095913 4.642313 -6.518777 
10.415154 -56.480152 89.063591 174.845585 1.419284 83.930065 2.414576 6.256403 -15.522409 -4.919659 12.459554 -9.322186 -3.520707 10.362741 7.534634 nan nan nan -0.031177 -6.958823 19.793214 3.416549 6.864692 2.112974 -1.826519 -3.848283 -19.594651 nan nan nan 4.667412 5.597780 8.953095 -0.134587 -0.859420 1.560489 -0.643649 1.853298 0.883245 3.241001 5.131429 -0.689376 -2.706184 1.373984 12.137312 -28.771387 5.507658 3.600661 -58.058422 5.680261 9.884139 3.974868 -21.198864 16.122123 -6.896632 -7.515887 -1.219554 20.759350 4.750127 -0.492607 57.352228 12.363007 16.545251 -8.208511 40.226332 2.386025 2.665313 4.845822 -6.715245 
10.350267 -55.308315 88.729195 174.554040 1.612856 83.992872 2.398970 6.791405 -15.820996 -5.076966 12.713315 -10.447420 -4.035544 10.358381 8.243953 nan nan nan -0.195640 -7.024569 20.316862 3.452310 7.132136 2.617548 -1.766913 -3.606071 -20.305234 nan nan nan 4.868463 5.651990 8.893834 -0.113194 -0.742374 1.604923 -0.702790 2.046694 0.839278 3.364270 5.265987 -0.874984 -2.868438 1.366823 12.157401 -28.947966 5.647966 3.439865 -57.958558 6.046903 9.897571 3.932103 -20.747131 16.253671 -6.757677 -7.293744 -0.980800 20.761351 4.846519 -0.607685 57.217890 12.799750 16.491917 -8.523574 40.467441 2.004559 2.351915 5.123573 -6.610437 
10.309292 -54.121830 88.419411 174.165724 1.882005 83.987074 2.538132 7.165877 -16.161664 -5.117765 13.326056 -10.868553 -4.275142 10.566369 8.771761 nan nan nan -0.232202 -7.000285 20.850504 3.441997 7.368719 3.229270 -1.610514 -3.322155 -20.942018 nan nan nan 5.130982 5.772296 8.867679 -0.050562 -0.590687 1.687348 -0.777464 2.269087 0.721821 3.459908 5.370588 -0.884514 -2.962382 1.346392 12.211289 -29.200868 5.733353 3.392501 -57.808874 6.409254 9.846698 4.013471 -20.364549 16.058721 -6.749940 -7.101486 -0.643159 20.884175 4.948663 -0.636375 56.962537 13.146805 16.385840 -8.860295 40.738512 1.501670 2.137146 5.248546 -6.523540 
10.299651 -52.958523 88.133789 173.861879 2.168058 84.015392 2.764992 7.315300 -16.823149 -5.076844 14.239042 -10.306956 -4.168976 10.863974 9.301957 nan nan nan -0.037138 -6.878700 21.286434 3.313896 7.670917 3.791466 -1.579618 -3.298802 -21.475054 nan nan nan 5.297760 5.923715 8.851280 0.075450 -0.504322 1.694706 -0.800034 2.447624 0.581331 3.505638 5.371712 -0.767205 -3.012902 1.415484 12.200156 -29.361125 5.820138 3.498703 -57.733134 6.722242 9.752293 4.165560 -20.087236 15.736164 -6.841921 -6.935907 -0.528716 21.035898 5.107987 -0.604679 56.709231 13.427276 16.326148 -9.274865 40.967703 0.987277 1.855363 5.229849 -6.643779 
10.288051 -51.809582 87.871475 173.720912 2.385240 84.047333 2.927421 7.389758 -17.689517 -5.036149 15.274118 -8.993462 -3.950163 11.218711 9.754357 nan nan nan 0.178020 -6.748065 21.694055 3.163170 7.834003 4.360258 -1.556791 -3.402839 -22.001831 nan nan nan 5.280060 6.104586 8.945798 0.247048 -0.495937 1.516017 -0.734459 2.578419 0.492941 3.577205 5.364276 -0.753656 -3.084813 1.539386 12.270177 -29.408032 5.915903 3.516486 -57.810255 6.911750 9.691407 4.289948 -19.518702 15.791574 -6.954647 -6.792836 -0.576110 21.192750 5.182698 -0.613148 56.474970 13.667808 16.305899 -9.738452 41.093146 0.397100 1.568822 5.310642 -6.938049 
10.243202 -50.664391 87.624588 173.586830 2.482729 84.069223 2.979604 7.377932 -18.514140 -4.976971 16.429796 -7.351262 -3.749338 11.708568 10.132396 nan nan nan 0.227945 -6.595160 22.044862 3.028246 7.888444 5.129384 -1.460162 -3.407419 -22.475130 nan nan nan 5.162395 6.317244 9.055450 0.380326 -0.441446 1.286773 -0.663796 2.683151 0.491434 3.728917 5.319379 -0.910594 -3.175042 1.544167 12.414061 -29.501640 5.992837 3.329435 -57.844279 7.006747 9.654037 4.336467 -18.651642 15.917209 -6.915362 -6.642159 -0.429557 21.372259 5.195239 -0.664909 56.289945 13.930567 16.281165 -10.280870 41.090558 -0.363918 1.309880 5.588362 -7.033236 
